2.6Hz3min_grf.mot
version=1
nRows=10
nColumns 19
inDegrees=yes
endheader
time	1_ground_force_vx	1_ground_force_vy	1_ground_force_vz	1_ground_force_px	1_ground_force_py	1_ground_force_pz	1_ground_torque_x	1_ground_torque_y	1_ground_torque_z	2_ground_force_vx	2_ground_force_vy	2_ground_force_vz	2_ground_force_px	2_ground_force_py	2_ground_force_pz	2_ground_torque_x	2_ground_torque_y	2_ground_torque_z
            1.253500	          -10.641591	          877.256753	         -100.353720	           -0.162202	            0.006030	           -0.357393	           -0.008749	            0.721259	           -0.082508	          -40.379598	          889.241996	           71.658183	           -0.111369	            0.006116	           -0.707402	           -0.020033	            0.441168	            0.035551
            1.254000	          -10.685505	          872.928402	          -99.913590	           -0.162063	            0.006031	           -0.357424	           -0.007292	            0.595699	           -0.068182	          -40.408601	          884.270681	           71.405814	           -0.111012	            0.006117	           -0.707310	           -0.021699	            0.474848	            0.038344
            1.254500	          -10.637815	          868.419969	          -99.520329	           -0.161983	            0.006031	           -0.357458	           -0.006363	            0.519440	           -0.059527	          -40.068293	          880.775307	           70.783133	           -0.111236	            0.006117	           -0.707404	           -0.021096	            0.463729	            0.037267
            1.255000	          -10.681274	          864.090831	          -98.896791	           -0.161857	            0.006032	           -0.357633	           -0.005376	            0.434884	           -0.049773	          -40.046504	          874.699531	           70.432946	           -0.110900	            0.006117	           -0.707241	           -0.025914	            0.566010	            0.045577
            1.255500	          -10.725761	          861.025021	          -98.588822	           -0.161874	            0.006030	           -0.357305	           -0.004787	            0.384268	           -0.043999	          -40.080002	          871.015923	           70.560617	           -0.111045	            0.006117	           -0.707401	           -0.030296	            0.658392	            0.053336
            1.256000	          -10.494717	          857.237490	          -98.147057	           -0.161940	            0.006031	           -0.357514	           -0.004882	            0.398811	           -0.045661	          -39.875528	          866.230371	           70.074172	           -0.110869	            0.006118	           -0.707328	           -0.027265	            0.592278	            0.047913
            1.256500	          -11.041745	          850.924773	          -97.393198	           -0.161773	            0.006032	           -0.357638	           -0.004930	            0.379904	           -0.043482	          -39.857830	          861.260398	           69.493295	           -0.110722	            0.006118	           -0.707279	           -0.030905	            0.667803	            0.053884
            1.257000	          -10.810018	          847.136062	          -96.676305	           -0.161656	            0.006031	           -0.357483	           -0.005454	            0.427387	           -0.048774	          -39.511335	          856.105901	           69.333965	           -0.110626	            0.006118	           -0.707152	           -0.029496	            0.639107	            0.051760
            1.257500	          -10.899955	          843.168369	          -96.280383	           -0.161595	            0.006032	           -0.357674	           -0.003170	            0.245225	           -0.028002	          -39.302832	          850.215170	           68.937435	           -0.110317	            0.006118	           -0.706939	           -0.030258	            0.654553	            0.053073
            1.258000	          -10.668503	          839.019777	          -95.702607	           -0.161386	            0.006032	           -0.357658	           -0.003111	            0.244628	           -0.027903	          -39.383421	          846.533402	           68.501988	           -0.110304	            0.006119	           -0.707256	           -0.032951	            0.708263	            0.057313
